<svg width="29" height="26" viewBox="0 0 29 26" fill="none" xmlns="http://www.w3.org/2000/svg">
<path d="M11.1328 22.8633H17.4961V16.1016C17.4961 15.8281 17.4141 15.6094 17.25 15.4453C17.0859 15.2812 16.8672 15.1992 16.5938 15.1992H12.0469C11.7734 15.1992 11.5508 15.2812 11.3789 15.4453C11.2148 15.6094 11.1328 15.8281 11.1328 16.1016V22.8633ZM3.79688 22.418V13.4648L13.5938 5.25C14.0703 4.84375 14.5508 4.84375 15.0352 5.25L24.832 13.4648V22.418C24.832 23.2617 24.582 23.9219 24.082 24.3984C23.582 24.875 22.9023 25.1133 22.043 25.1133H6.58594C5.71875 25.1133 5.03516 24.875 4.53516 24.3984C4.04297 23.9219 3.79688 23.2617 3.79688 22.418ZM1.20703 12.9492C0.832031 12.9492 0.535156 12.8398 0.316406 12.6211C0.105469 12.3945 0 12.1289 0 11.8242C0 11.457 0.152344 11.1484 0.457031 10.8984L12.668 0.644531C13.1758 0.214844 13.7227 0 14.3086 0C14.9023 0 15.4492 0.214844 15.9492 0.644531L28.1602 10.8984C28.4727 11.1484 28.6289 11.457 28.6289 11.8242C28.6289 12.1289 28.5195 12.3945 28.3008 12.6211C28.0898 12.8398 27.7969 12.9492 27.4219 12.9492C27.2422 12.9492 27.0703 12.9102 26.9062 12.832C26.75 12.7461 26.6016 12.6445 26.4609 12.5273L14.8125 2.75391C14.6562 2.62109 14.4883 2.55469 14.3086 2.55469C14.1367 2.55469 13.9727 2.62109 13.8164 2.75391L2.17969 12.5273C2.03125 12.6445 1.875 12.7461 1.71094 12.832C1.55469 12.9102 1.38672 12.9492 1.20703 12.9492ZM21.75 6.15234V3.43359C21.75 3.16797 21.8281 2.95703 21.9844 2.80078C22.1484 2.64453 22.3594 2.56641 22.6172 2.56641H24.1992C24.4648 2.56641 24.6758 2.64453 24.832 2.80078C24.9883 2.95703 25.0664 3.16797 25.0664 3.43359V8.94141L21.75 6.15234Z" fill="#F8A6B4"/>
</svg>
